<svg xmlns="http://www.w3.org/2000/svg" xmlns:xlink="http://www.w3.org/1999/xlink" aria-hidden="true" focusable="false" width="16" height="16" style="-ms-transform: rotate(360deg); -webkit-transform: rotate(360deg); transform: rotate(360deg);" preserveAspectRatio="xMidYMid meet" viewBox="0 0 14 16"><path fill-rule="evenodd" d="M7 1C3.14 1 0 4.14 0 8s3.14 7 7 7 7-3.14 7-7-3.14-7-7-7zm0 1.3c1.3 0 2.5.44 3.47 1.17l-8 8A5.755 5.755 0 0 1 1.3 8c0-3.14 2.56-5.7 5.7-5.7zm0 11.41c-1.3 0-2.5-.44-3.47-1.17l8-8c.73.97 1.17 2.17 1.17 3.47 0 3.14-2.56 5.7-5.7 5.7z" fill="black"/></svg>
