<?xml version="1.0" standalone="no"?>
<!DOCTYPE svg PUBLIC "-//W3C//DTD SVG 20010904//EN"
 "http://www.w3.org/TR/2001/REC-SVG-20010904/DTD/svg10.dtd">
<svg version="1.0" xmlns="http://www.w3.org/2000/svg"
 width="201.000000pt" height="199.000000pt" viewBox="0 0 201.000000 199.000000"
 preserveAspectRatio="xMidYMid meet">
<metadata>
Created by potrace 1.15, written by Peter Selinger 2001-2017
</metadata>
<g transform="translate(0.000000,199.000000) scale(0.100000,-0.100000)"
fill="#000000" stroke="none">
<path d="M975 1984 c-179 -29 -333 -111 -461 -245 -76 -80 -114 -137 -165
-243 -37 -76 -44 -85 -82 -100 -23 -9 -55 -27 -72 -40 l-30 -24 0 -114 c0
-125 22 -218 58 -243 19 -13 17 -17 -42 -82 -66 -73 -188 -253 -171 -253 6 0
29 17 53 38 51 46 123 103 158 126 25 16 26 16 21 -13 -6 -42 24 -188 50 -240
l23 -46 63 2 c46 1 62 -2 62 -12 0 -7 19 -51 42 -97 l43 -85 -93 44 c-51 23
-100 43 -108 43 -9 0 14 -43 65 -117 108 -160 142 -197 209 -230 53 -26 66
-28 192 -29 74 -1 153 -7 175 -13 58 -16 221 -13 290 4 33 9 88 29 123 46 34
17 107 41 162 55 113 27 144 41 179 77 23 26 163 288 157 295 -2 2 -36 -10
-76 -27 -40 -17 -73 -31 -75 -31 -2 0 4 23 13 50 l16 50 58 0 c54 0 59 2 73
30 24 46 45 149 45 222 0 62 -2 68 -29 90 -41 32 -33 67 20 90 57 24 81 82 87
215 7 158 4 166 -77 205 -66 32 -70 36 -96 96 -103 236 -303 416 -537 482 -72
21 -257 34 -323 24z m273 -59 c228 -54 419 -210 532 -434 22 -44 27 -62 17
-58 -25 9 -93 20 -87 14 3 -3 41 -21 85 -40 124 -52 163 -80 171 -123 8 -45
-10 -177 -32 -233 -18 -46 -40 -56 -29 -14 3 15 7 32 8 38 1 5 -19 14 -45 19
-27 5 -48 12 -48 16 0 3 15 13 33 22 31 15 28 16 -68 11 -62 -3 -170 2 -285
13 -245 25 -590 25 -840 0 -108 -11 -224 -16 -277 -14 -51 3 -93 3 -93 1 0 -2
19 -12 42 -22 l43 -18 -47 -7 c-26 -4 -50 -11 -53 -16 -3 -6 -2 -26 4 -46 10
-35 9 -35 -11 -22 -35 24 -51 83 -52 202 l-1 109 70 39 c39 21 100 50 138 64
37 15 66 29 64 30 -2 2 -28 -3 -58 -10 -30 -8 -55 -13 -57 -11 -14 14 96 193
166 267 92 98 233 182 371 219 83 22 252 24 339 4z m-128 -975 c-14 -11 -45
-27 -70 -36 -25 -9 -54 -19 -65 -24 -15 -6 -28 -33 -50 -109 -18 -62 -36 -103
-45 -106 -39 -11 -292 -65 -307 -65 -10 0 -39 16 -64 34 l-45 34 -13 116 c-8
64 -12 119 -10 121 6 6 201 36 205 32 2 -2 -12 -26 -31 -53 -44 -61 -44 -72
-2 -40 17 13 68 45 112 70 l80 46 165 0 165 0 -25 -20z m515 -16 c49 -8 92
-17 94 -19 2 -2 -2 -48 -9 -102 l-13 -98 -52 -37 -53 -37 -162 19 c-89 10
-163 20 -164 22 -2 2 -16 48 -31 102 -26 87 -33 101 -56 110 -25 9 -19 12 74
37 116 31 208 32 372 3z m-1216 -121 c20 -166 17 -157 81 -202 32 -23 66 -41
77 -41 10 0 94 18 188 38 l169 38 31 103 c16 56 37 106 45 111 22 14 143 12
162 -2 9 -7 29 -57 44 -111 22 -78 32 -99 48 -102 12 -3 95 -13 185 -23 l164
-19 60 41 c67 46 70 52 87 179 11 83 13 87 34 81 11 -4 22 -7 22 -8 1 0 -6
-50 -14 -111 -10 -74 -21 -114 -31 -122 -9 -7 -46 -33 -82 -58 l-66 -45 -184
20 c-101 12 -194 23 -206 26 -18 3 -28 22 -55 112 l-34 107 -54 0 -54 0 -32
-103 c-18 -57 -34 -105 -36 -107 -5 -5 -353 -82 -389 -87 -19 -2 -49 13 -106
52 l-80 55 -15 125 c-14 113 -14 126 0 138 9 6 19 12 23 12 3 0 12 -44 18 -97z
m730 -128 c17 -59 37 -108 44 -111 7 -2 109 -15 227 -29 l215 -25 43 30 c52
37 54 27 11 -77 l-32 -75 -91 7 c-104 8 -100 6 -186 75 -64 51 -66 52 -117 46
-47 -5 -51 -4 -46 13 5 18 2 18 -43 -5 -54 -28 -109 -31 -161 -9 -19 8 -38 15
-40 15 -3 0 -3 -7 1 -15 4 -12 -3 -15 -35 -15 -55 0 -89 -20 -148 -88 -47 -54
-58 -61 -127 -81 -41 -12 -79 -19 -84 -16 -25 15 -121 213 -98 199 7 -4 25
-16 40 -26 26 -18 29 -18 210 22 101 23 202 46 226 52 l42 10 32 104 c30 98
33 104 58 104 25 0 28 -6 59 -105z m67 -566 c3 -6 24 -19 46 -29 l40 -18 -70
-16 c-73 -17 -232 -22 -232 -8 0 4 15 13 33 20 19 7 44 23 57 37 19 20 33 25
71 25 26 0 51 -5 55 -11z"/>
<path d="M1343 1768 c11 -45 21 -123 24 -202 5 -112 4 -130 -11 -138 -9 -5
-16 -17 -16 -27 0 -9 -7 -40 -15 -67 l-14 -49 -225 0 -224 0 -10 35 c-6 19
-13 49 -17 67 -3 17 -13 37 -21 44 -25 21 -16 183 20 364 5 26 3 24 -14 -11
-27 -57 -47 -137 -55 -225 -6 -62 -10 -75 -25 -76 -10 -1 -49 -11 -88 -22 -38
-12 -74 -21 -81 -21 -29 0 4 193 49 279 27 54 18 53 -13 -1 -32 -57 -54 -127
-66 -213 -8 -51 -16 -73 -31 -85 -18 -14 -21 -27 -23 -108 l-2 -92 -32 -11
c-53 -17 -47 -27 7 -13 203 53 950 58 1207 9 80 -15 104 -14 55 3 -29 10 -29
11 -34 103 -5 77 -9 95 -26 108 -15 11 -22 33 -27 76 -9 75 -50 202 -76 235
-19 25 -19 24 1 -21 10 -25 26 -72 35 -104 16 -62 21 -165 7 -165 -4 0 -39 9
-77 20 -38 11 -79 20 -91 20 -19 0 -22 7 -28 83 -3 45 -12 105 -19 132 -14 50
-53 145 -60 145 -2 0 5 -33 16 -72z m-607 -495 c-1 -2 -43 -10 -92 -18 -49 -9
-97 -18 -106 -21 -16 -5 -18 3 -18 75 l0 80 73 21 c39 12 83 25 97 29 25 8 25
7 37 -78 6 -47 10 -87 9 -88z m884 127 c27 -7 38 -44 39 -129 1 -40 -1 -43
-21 -37 -13 3 -63 13 -113 22 -49 8 -91 16 -92 18 -1 1 2 19 7 41 5 22 10 61
10 87 l0 46 73 -20 c39 -12 83 -24 97 -28z"/>
<path d="M880 1710 l0 -90 60 0 c57 0 60 1 60 25 0 14 5 25 10 25 6 0 10 -43
10 -109 0 -100 -2 -109 -20 -114 -17 -4 -20 -14 -20 -71 l0 -66 110 0 110 0 0
66 c0 57 -3 67 -20 71 -18 5 -20 14 -20 114 0 66 4 109 10 109 6 0 10 -11 10
-25 0 -25 1 -26 63 -23 l62 3 0 85 0 85 -212 3 -213 2 0 -90z"/>
<path d="M737 889 c-27 -16 -47 -64 -47 -113 0 -36 -4 -46 -20 -51 -41 -13
-18 -21 53 -17 39 1 82 5 94 7 43 9 41 113 -3 160 -24 26 -48 31 -77 14z"/>
<path d="M1374 908 c-30 -14 -44 -50 -44 -113 0 -69 13 -77 120 -73 75 3 103
14 61 25 -13 3 -20 17 -25 50 -7 55 -31 98 -63 112 -13 6 -25 11 -26 10 -1 0
-12 -5 -23 -11z"/>
</g>
</svg>
